<svg xmlns="http://www.w3.org/2000/svg" width="48" height="48" fill="none" id="bitbucket"><path fill="#fff" d="M0 24C0 10.745 10.745 0 24 0s24 10.745 24 24-10.745 24-24 24S0 37.255 0 24Z"></path><path fill="#2684FF" fill-rule="evenodd" d="M12.547 13.958a.75.75 0 0 1 .578-.26l21.889.003a.75.75 0 0 1 .75.87L32.58 34.116a.75.75 0 0 1-.75.63H16.556a1.02 1.02 0 0 1-.997-.851l-3.184-19.328a.75.75 0 0 1 .172-.61Zm9.11 13.708h4.874l1.181-6.896h-7.376l1.32 6.896Z" clip-rule="evenodd"></path><path fill="url(#a)" d="M34.751 20.77h-7.038l-1.182 6.896h-4.875L15.9 34.5c.182.157.415.245.656.247h15.278a.75.75 0 0 0 .75-.63L34.75 20.77Z"></path><defs><linearGradient id="a" x1="30.256" x2="22.125" y1="18.389" y2="29.934" gradientUnits="userSpaceOnUse"><stop offset=".18" stop-color="#0052CC"></stop><stop offset="1" stop-color="#2684FF"></stop></linearGradient></defs></svg>